<mxfile host="app.diagrams.net" modified="2022-04-21T12:02:57.114Z" agent="5.0 (Windows NT 10.0; Win64; x64) AppleWebKit/537.36 (KHTML, like Gecko) Chrome/100.0.4896.127 Safari/537.36 Edg/100.0.1185.44" etag="mIxLs4W0UDZ-n5Py3i_e" version="17.4.6" type="gitlab">
  <diagram id="8PC-EVFU_IGmwVhDBwtt" name="Page-1">
    <mxGraphModel dx="2032" dy="372" grid="1" gridSize="10" guides="1" tooltips="1" connect="1" arrows="1" fold="1" page="1" pageScale="1" pageWidth="1169" pageHeight="827" math="0" shadow="0">
      <root>
        <mxCell id="0" />
        <mxCell id="1" parent="0" />
        <mxCell id="sKN5310akKF0H-P3zg4_-17" value="" style="endArrow=classic;html=1;rounded=0;fontSize=24;curved=1;" parent="1" edge="1">
          <mxGeometry width="50" height="50" relative="1" as="geometry">
            <mxPoint x="-270" y="155" as="sourcePoint" />
            <mxPoint x="-418" y="180" as="targetPoint" />
          </mxGeometry>
        </mxCell>
        <mxCell id="AgyIGO7bEkXce8nl9FZd-3" value="" style="endArrow=classic;html=1;rounded=0;fontSize=24;curved=1;startArrow=none;" parent="1" edge="1" source="w6OsdAJtVfKDFKznbBhC-12">
          <mxGeometry width="50" height="50" relative="1" as="geometry">
            <mxPoint x="-440.5" y="80" as="sourcePoint" />
            <mxPoint x="-440.5" y="500" as="targetPoint" />
          </mxGeometry>
        </mxCell>
        <mxCell id="AgyIGO7bEkXce8nl9FZd-18" value="Finally, v2 application is&lt;br&gt;online with modified changes&lt;br&gt;&amp;nbsp;in dev branch" style="text;html=1;align=left;verticalAlign=middle;resizable=0;points=[];autosize=1;strokeColor=none;fillColor=none;" parent="1" vertex="1">
          <mxGeometry x="-230" y="418" width="170" height="50" as="geometry" />
        </mxCell>
        <mxCell id="w6OsdAJtVfKDFKznbBhC-1" value="&lt;font style=&quot;font-size: 18px&quot;&gt;Main&lt;/font&gt;" style="rounded=1;whiteSpace=wrap;html=1;fontSize=24;" vertex="1" parent="1">
          <mxGeometry x="-280" y="50" width="60" height="30" as="geometry" />
        </mxCell>
        <mxCell id="w6OsdAJtVfKDFKznbBhC-2" value="&lt;font style=&quot;font-size: 18px&quot;&gt;Develop&lt;/font&gt;" style="rounded=1;whiteSpace=wrap;html=1;fontSize=24;" vertex="1" parent="1">
          <mxGeometry x="-480" y="50" width="80" height="30" as="geometry" />
        </mxCell>
        <mxCell id="w6OsdAJtVfKDFKznbBhC-3" value="" style="endArrow=classic;html=1;rounded=0;fontSize=24;curved=1;startArrow=none;exitX=0.5;exitY=1;exitDx=0;exitDy=0;" edge="1" parent="1" source="AgyIGO7bEkXce8nl9FZd-9">
          <mxGeometry width="50" height="50" relative="1" as="geometry">
            <mxPoint x="-246" y="175" as="sourcePoint" />
            <mxPoint x="-250" y="494" as="targetPoint" />
          </mxGeometry>
        </mxCell>
        <mxCell id="w6OsdAJtVfKDFKznbBhC-4" value="&lt;font style=&quot;font-size: 18px&quot;&gt;Feature&lt;/font&gt;" style="rounded=1;whiteSpace=wrap;html=1;fontSize=24;" vertex="1" parent="1">
          <mxGeometry x="-654" y="50" width="70" height="30" as="geometry" />
        </mxCell>
        <mxCell id="sKN5310akKF0H-P3zg4_-1" value="" style="shape=image;html=1;verticalAlign=top;verticalLabelPosition=bottom;labelBackgroundColor=#ffffff;imageAspect=0;aspect=fixed;image=https://cdn3.iconfinder.com/data/icons/developperss/PNG/Green%20Ball.png;imageBackground=none;imageBorder=none;sketch=0;" parent="1" vertex="1">
          <mxGeometry x="-265" y="134" width="30" height="30" as="geometry" />
        </mxCell>
        <mxCell id="w6OsdAJtVfKDFKznbBhC-7" value="" style="endArrow=none;html=1;rounded=0;fontSize=24;curved=1;startArrow=none;exitX=0.5;exitY=1;exitDx=0;exitDy=0;" edge="1" parent="1" source="w6OsdAJtVfKDFKznbBhC-1" target="sKN5310akKF0H-P3zg4_-1">
          <mxGeometry width="50" height="50" relative="1" as="geometry">
            <mxPoint x="-250" y="84" as="sourcePoint" />
            <mxPoint x="-250" y="494" as="targetPoint" />
          </mxGeometry>
        </mxCell>
        <mxCell id="AgyIGO7bEkXce8nl9FZd-9" value="" style="shape=image;html=1;verticalAlign=top;verticalLabelPosition=bottom;labelBackgroundColor=#ffffff;imageAspect=0;aspect=fixed;image=https://cdn3.iconfinder.com/data/icons/developperss/PNG/Green%20Ball.png" parent="1" vertex="1">
          <mxGeometry x="-265" y="428" width="30" height="30" as="geometry" />
        </mxCell>
        <mxCell id="w6OsdAJtVfKDFKznbBhC-9" value="" style="endArrow=none;html=1;rounded=0;fontSize=24;curved=1;startArrow=none;exitX=0.5;exitY=1;exitDx=0;exitDy=0;" edge="1" parent="1" source="sKN5310akKF0H-P3zg4_-1" target="AgyIGO7bEkXce8nl9FZd-9">
          <mxGeometry width="50" height="50" relative="1" as="geometry">
            <mxPoint x="-250" y="164" as="sourcePoint" />
            <mxPoint x="-250" y="494" as="targetPoint" />
          </mxGeometry>
        </mxCell>
        <mxCell id="w6OsdAJtVfKDFKznbBhC-12" value="" style="shape=image;html=1;verticalAlign=top;verticalLabelPosition=bottom;labelBackgroundColor=#ffffff;imageAspect=0;aspect=fixed;image=https://cdn3.iconfinder.com/data/icons/developperss/PNG/Green%20Ball.png" vertex="1" parent="1">
          <mxGeometry x="-455" y="384" width="30" height="30" as="geometry" />
        </mxCell>
        <mxCell id="w6OsdAJtVfKDFKznbBhC-13" value="" style="endArrow=none;html=1;rounded=0;fontSize=24;curved=1;startArrow=none;exitX=0.5;exitY=1;exitDx=0;exitDy=0;" edge="1" parent="1" source="w6OsdAJtVfKDFKznbBhC-2" target="w6OsdAJtVfKDFKznbBhC-12">
          <mxGeometry width="50" height="50" relative="1" as="geometry">
            <mxPoint x="-440" y="267" as="sourcePoint" />
            <mxPoint x="-440.5" y="500" as="targetPoint" />
          </mxGeometry>
        </mxCell>
        <mxCell id="w6OsdAJtVfKDFKznbBhC-17" value="" style="endArrow=classic;html=1;rounded=0;fontSize=24;curved=1;startArrow=none;exitX=0.5;exitY=1;exitDx=0;exitDy=0;" edge="1" parent="1">
          <mxGeometry width="50" height="50" relative="1" as="geometry">
            <mxPoint x="-619" y="384" as="sourcePoint" />
            <mxPoint x="-618" y="500" as="targetPoint" />
          </mxGeometry>
        </mxCell>
        <mxCell id="w6OsdAJtVfKDFKznbBhC-15" value="" style="shape=image;html=1;verticalAlign=top;verticalLabelPosition=bottom;labelBackgroundColor=#ffffff;imageAspect=0;aspect=fixed;image=https://cdn3.iconfinder.com/data/icons/developperss/PNG/Green%20Ball.png" vertex="1" parent="1">
          <mxGeometry x="-634" y="220" width="30" height="30" as="geometry" />
        </mxCell>
        <mxCell id="w6OsdAJtVfKDFKznbBhC-18" value="" style="endArrow=none;html=1;rounded=0;fontSize=24;curved=1;startArrow=none;exitX=0.5;exitY=1;exitDx=0;exitDy=0;" edge="1" parent="1" target="w6OsdAJtVfKDFKznbBhC-15">
          <mxGeometry width="50" height="50" relative="1" as="geometry">
            <mxPoint x="-618.5" y="80" as="sourcePoint" />
            <mxPoint x="-618" y="500" as="targetPoint" />
          </mxGeometry>
        </mxCell>
        <mxCell id="w6OsdAJtVfKDFKznbBhC-19" value="" style="endArrow=classic;html=1;rounded=0;fontSize=24;curved=1;" edge="1" parent="1">
          <mxGeometry width="50" height="50" relative="1" as="geometry">
            <mxPoint x="-465" y="200" as="sourcePoint" />
            <mxPoint x="-600" y="226" as="targetPoint" />
          </mxGeometry>
        </mxCell>
        <mxCell id="w6OsdAJtVfKDFKznbBhC-23" value="" style="endArrow=none;html=1;rounded=0;fontSize=24;curved=1;startArrow=none;exitX=0.5;exitY=1;exitDx=0;exitDy=0;" edge="1" parent="1" source="w6OsdAJtVfKDFKznbBhC-20">
          <mxGeometry width="50" height="50" relative="1" as="geometry">
            <mxPoint x="-619" y="200" as="sourcePoint" />
            <mxPoint x="-619" y="390" as="targetPoint" />
          </mxGeometry>
        </mxCell>
        <mxCell id="w6OsdAJtVfKDFKznbBhC-20" value="" style="shape=image;html=1;verticalAlign=top;verticalLabelPosition=bottom;labelBackgroundColor=#ffffff;imageAspect=0;aspect=fixed;image=https://cdn3.iconfinder.com/data/icons/developperss/PNG/Green%20Ball.png" vertex="1" parent="1">
          <mxGeometry x="-634" y="330" width="30" height="30" as="geometry" />
        </mxCell>
        <mxCell id="w6OsdAJtVfKDFKznbBhC-24" value="" style="endArrow=none;html=1;rounded=0;fontSize=24;curved=1;startArrow=none;exitX=0.5;exitY=1;exitDx=0;exitDy=0;" edge="1" parent="1" source="w6OsdAJtVfKDFKznbBhC-15" target="w6OsdAJtVfKDFKznbBhC-20">
          <mxGeometry width="50" height="50" relative="1" as="geometry">
            <mxPoint x="-619" y="250" as="sourcePoint" />
            <mxPoint x="-619" y="390" as="targetPoint" />
          </mxGeometry>
        </mxCell>
        <mxCell id="w6OsdAJtVfKDFKznbBhC-25" value="" style="endArrow=classic;html=1;rounded=0;fontSize=24;curved=1;" edge="1" parent="1">
          <mxGeometry width="50" height="50" relative="1" as="geometry">
            <mxPoint x="-600" y="350" as="sourcePoint" />
            <mxPoint x="-460" y="390" as="targetPoint" />
          </mxGeometry>
        </mxCell>
        <mxCell id="w6OsdAJtVfKDFKznbBhC-26" value="" style="endArrow=classic;html=1;rounded=0;fontSize=24;curved=1;" edge="1" parent="1">
          <mxGeometry width="50" height="50" relative="1" as="geometry">
            <mxPoint x="-420" y="403" as="sourcePoint" />
            <mxPoint x="-280" y="443" as="targetPoint" />
          </mxGeometry>
        </mxCell>
        <mxCell id="w6OsdAJtVfKDFKznbBhC-28" value="&lt;font style=&quot;font-size: 6px&quot;&gt;&lt;span&gt;git checkout main&lt;/span&gt;&lt;br&gt;&lt;span&gt;git pull&lt;/span&gt;&lt;br&gt;&lt;span&gt;git checkout -b develop main&lt;/span&gt;&lt;/font&gt;" style="rounded=1;whiteSpace=wrap;html=1;fontSize=11;align=left;" vertex="1" parent="1">
          <mxGeometry x="-390" y="110" width="80" height="40" as="geometry" />
        </mxCell>
        <mxCell id="w6OsdAJtVfKDFKznbBhC-30" value="&lt;font style=&quot;font-size: 6px&quot;&gt;&lt;span&gt;git checkout develop&lt;/span&gt;&lt;br&gt;&lt;span&gt;git pull&lt;/span&gt;&lt;br&gt;&lt;span&gt;git checkout -b feature develop&lt;/span&gt;&lt;/font&gt;" style="rounded=1;whiteSpace=wrap;html=1;fontSize=11;align=left;" vertex="1" parent="1">
          <mxGeometry x="-580" y="150" width="90" height="40" as="geometry" />
        </mxCell>
        <mxCell id="w6OsdAJtVfKDFKznbBhC-31" value="&lt;font style=&quot;font-size: 6px&quot;&gt;&lt;span&gt;git checkout main&lt;/span&gt;&lt;br&gt;&lt;span&gt;git pull&lt;/span&gt;&lt;br&gt;&lt;span&gt;git checkout -b develop main&lt;/span&gt;&lt;/font&gt;" style="rounded=1;whiteSpace=wrap;html=1;fontSize=11;align=left;" vertex="1" parent="1">
          <mxGeometry x="-560" y="310" width="80" height="40" as="geometry" />
        </mxCell>
        <mxCell id="w6OsdAJtVfKDFKznbBhC-32" value="&lt;span style=&quot;font-size: 6px&quot;&gt;git add .&lt;br&gt;git commit -m &quot;commit&quot;&lt;br&gt;&lt;/span&gt;" style="rounded=1;whiteSpace=wrap;html=1;fontSize=11;align=left;" vertex="1" parent="1">
          <mxGeometry x="-704" y="280" width="70" height="30" as="geometry" />
        </mxCell>
        <mxCell id="w6OsdAJtVfKDFKznbBhC-34" value="&lt;span style=&quot;font-size: 6px&quot;&gt;git add .&lt;br&gt;git commit -m &quot;commit&quot;&lt;br&gt;&lt;/span&gt;" style="rounded=1;whiteSpace=wrap;html=1;fontSize=11;align=left;" vertex="1" parent="1">
          <mxGeometry x="-430" y="317" width="65" height="33" as="geometry" />
        </mxCell>
        <mxCell id="sKN5310akKF0H-P3zg4_-6" value="" style="shape=image;html=1;verticalAlign=top;verticalLabelPosition=bottom;labelBackgroundColor=#ffffff;imageAspect=0;aspect=fixed;image=https://cdn3.iconfinder.com/data/icons/developperss/PNG/Green%20Ball.png" parent="1" vertex="1">
          <mxGeometry x="-455" y="170" width="30" height="30" as="geometry" />
        </mxCell>
      </root>
    </mxGraphModel>
  </diagram>
</mxfile>
